# xmcd CD database file
#
# Track frame offsets:
#	150
#	12297
#	32025
#	42040
#	54235
#	65360
#	77807
#	89570
#	104267
#	115492
#	129205
#	142707
#
# Disc length: 2066 seconds
#
# Revision: 2
# Processed by: cddbd v1.5.1PL0 Copyright (c) Steve Scherf et al.
# Submitted via: CDex 1.51
#
DISCID=9108100c
DTITLE=Tom Astor - Hallo Freunde
DYEAR=1900
DGENRE=Country
TTITLE0=Hallo, guten Morgen Deutschland
TTITLE1=Daddy, wenn ich groß bin, fahr ich Diesel
TTITLE2=Ihr Leben, das ist ihr Laster
TTITLE3=Radwechsel
TTITLE4=Ist lang her
TTITLE5=Hier riecht's nach Freiheit
TTITLE6=Ein unbekannter Stuntman
TTITLE7=Sie ist jung und ich ein Mann, der viel erlebt
TTITLE8=Ist das ein Leben! So hart und schön
TTITLE9=Sie ist wie ein neues Leben
TTITLE10=Alter Freund, überhol dich nicht selber
TTITLE11=Ich wünsch dir Hals- und Beinbruch
EXTD=EMI
EXTT0=
EXTT1=
EXTT2=
EXTT3=
EXTT4=
EXTT5=
EXTT6=
EXTT7=
EXTT8=
EXTT9=
EXTT10=
EXTT11=
PLAYORDER=
